<?xml version="1.0" standalone="no"?>
<!DOCTYPE svg PUBLIC "-//W3C//DTD SVG 20010904//EN"
 "http://www.w3.org/TR/2001/REC-SVG-20010904/DTD/svg10.dtd">
<svg version="1.0" xmlns="http://www.w3.org/2000/svg"
 width="186.000000pt" height="255.000000pt" viewBox="0 0 186.000000 255.000000"
 preserveAspectRatio="xMidYMid meet">
<metadata>
Created by potrace 1.16, written by Peter Selinger 2001-2019
</metadata>
<g transform="translate(0.000000,255.000000) scale(0.100000,-0.100000)"
fill="#ffffff" stroke="none">
<path d="M657 1942 c-29 -32 -20 -57 39 -107 l55 -48 -3 -181 -3 -181 -188
-314 c-273 -457 -261 -433 -261 -511 1 -98 44 -169 134 -216 32 -18 68 -19
482 -22 282 -2 462 1 486 7 133 36 211 201 153 326 -10 22 -111 197 -225 388
l-206 349 0 182 0 181 50 40 c47 38 55 50 50 85 -4 37 -27 40 -290 40 -236 0
-258 -1 -273 -18z m503 -38 c0 -4 -20 -24 -45 -46 l-45 -40 0 -203 0 -203 220
-373 c121 -206 223 -389 226 -406 20 -105 -58 -204 -169 -218 -29 -4 -234 -5
-457 -3 l-405 3 -43 25 c-82 47 -118 161 -76 242 20 38 250 428 353 598 l76
125 3 203 3 203 -53 49 -53 50 233 0 c127 0 232 -3 232 -6z"/>
<path d="M856 1784 c-10 -26 -7 -278 4 -294 7 -12 13 -12 27 -4 16 10 18 30
21 149 3 137 -3 165 -33 165 -7 0 -16 -7 -19 -16z"/>
<path d="M780 1179 c-49 -20 -60 -46 -60 -151 0 -89 2 -99 26 -127 21 -25 33
-31 65 -31 76 0 105 56 97 190 -3 58 -8 74 -28 94 -30 30 -66 39 -100 25z m68
-142 c3 -93 -5 -117 -39 -117 -28 0 -39 32 -39 112 0 81 10 101 50 96 24 -3
25 -5 28 -91z"/>
<path d="M996 1151 c-41 -42 -44 -78 -6 -68 19 5 20 0 20 -78 0 -79 -1 -84
-22 -87 -15 -2 -23 -10 -23 -23 0 -18 7 -20 75 -20 68 0 75 2 75 20 0 13 -8
21 -22 23 -22 3 -23 6 -23 126 0 113 -7 146 -30 146 -3 0 -23 -18 -44 -39z"/>
<path d="M535 785 c-23 -22 -25 -31 -25 -127 0 -79 4 -109 16 -126 23 -33 60
-45 100 -32 55 18 64 41 64 156 0 96 -1 103 -26 128 -36 35 -95 36 -129 1z
m93 -37 c7 -7 12 -43 12 -93 0 -86 -8 -105 -46 -105 -29 0 -34 17 -34 109 0
78 9 101 40 101 9 0 21 -5 28 -12z"/>
<path d="M782 777 c-40 -41 -43 -71 -7 -65 l25 5 0 -83 c0 -78 -1 -83 -22 -86
-26 -3 -37 -36 -16 -49 23 -15 124 -11 138 6 16 19 -3 45 -31 45 -17 0 -19 11
-21 127 -3 146 -11 157 -66 100z"/>
<path d="M991 776 c-37 -38 -37 -73 -1 -63 19 5 20 0 20 -78 0 -80 -1 -83 -25
-89 -28 -7 -34 -40 -9 -50 9 -3 39 -6 69 -6 60 0 87 19 65 45 -7 8 -19 15 -26
15 -11 0 -14 24 -14 114 0 63 -3 121 -6 130 -10 26 -38 19 -73 -18z"/>
<path d="M1203 786 c-27 -23 -28 -29 -31 -123 -3 -89 -2 -101 18 -126 31 -39
65 -50 107 -36 49 16 63 51 63 159 0 88 -1 93 -29 121 -38 37 -88 39 -128 5z
m91 -42 c12 -11 16 -35 16 -88 0 -82 -13 -110 -51 -104 -23 3 -24 6 -27 91 -3
89 5 117 34 117 7 0 20 -7 28 -16z"/>
</g>
</svg>
